<?xml version="1.0" standalone="no"?>
<!DOCTYPE svg PUBLIC "-//W3C//DTD SVG 20010904//EN"
 "http://www.w3.org/TR/2001/REC-SVG-20010904/DTD/svg10.dtd">
<svg version="1.0" xmlns="http://www.w3.org/2000/svg"
 width="420.000000pt" height="420.000000pt" viewBox="0 0 420.000000 420.000000"
 preserveAspectRatio="xMidYMid meet">
<metadata>
Created by potrace 1.14, written by Peter Selinger 2001-2017
</metadata>
<g transform="translate(0.000000,420.000000) scale(0.100000,-0.100000)"
fill="#000000" stroke="none">
<path d="M2326 3677 c-21 -18 -53 -44 -70 -59 -33 -29 -155 -92 -163 -85 -5 6
-11 34 -12 62 -2 46 -38 56 -73 21 -16 -14 -161 -86 -319 -156 -64 -28 -146
-73 -182 -99 -75 -55 -177 -153 -177 -170 0 -6 -4 -11 -9 -11 -5 0 -14 -15
-21 -32 l-12 -33 -21 56 c-12 31 -25 57 -29 58 -20 3 -27 -1 -39 -26 -8 -16
-39 -73 -70 -128 -31 -55 -65 -122 -75 -150 -32 -93 -24 -405 16 -600 11 -51
18 -97 25 -150 8 -62 15 -101 22 -130 4 -16 8 -34 9 -40 0 -5 4 -18 9 -28 10
-24 1 -31 -17 -13 -32 31 -77 21 -96 -22 -22 -50 -21 -85 4 -266 3 -22 9 -47
14 -57 5 -9 7 -18 5 -21 -3 -3 2 -27 10 -54 8 -27 15 -50 15 -51 0 -2 -35 -3
-79 -3 -72 0 -80 -2 -106 -27 l-27 -28 6 -160 c3 -88 9 -198 12 -245 3 -47 7
-119 9 -160 9 -204 18 -377 20 -390 2 -17 -23 -61 -42 -73 -7 -4 -13 -15 -13
-22 0 -8 -4 -15 -10 -15 -5 0 -10 -7 -10 -15 0 -8 -3 -15 -7 -15 -9 0 -57 -82
-85 -142 -9 -21 -15 -38 -12 -38 3 0 0 -8 -5 -18 -10 -19 -18 -51 -26 -109
l-5 -33 1391 0 1391 0 -7 46 c-12 89 -97 272 -158 341 -25 28 -25 22 -2 453 2
30 6 127 10 215 4 88 9 168 10 177 4 17 7 132 6 181 -1 17 -12 38 -27 52 -24
22 -36 25 -102 25 -67 0 -73 2 -67 18 4 9 9 26 11 37 2 11 6 31 9 45 42 191
48 277 26 343 -17 52 -39 61 -86 37 -42 -21 -55 -19 -35 5 7 8 9 15 5 15 -4 0
-2 7 5 15 7 8 9 15 6 15 -4 0 -2 8 3 19 6 10 13 38 16 62 2 24 7 60 10 79 3
19 8 55 11 80 3 25 7 59 9 75 31 261 25 399 -25 534 -27 71 -139 286 -162 311
-10 11 -18 23 -18 27 -1 13 -49 68 -54 62 -3 -3 -7 -30 -10 -60 -2 -29 -4 -56
-5 -57 -3 -12 -87 94 -118 148 -20 36 -39 67 -42 70 -4 3 -11 16 -18 30 -6 14
-25 45 -43 69 -31 42 -47 45 -54 10 -15 -77 -25 -80 -46 -14 -29 95 -74 195
-86 195 -8 0 -14 -7 -14 -15 0 -8 -4 -15 -10 -15 -5 0 -10 -6 -10 -14 0 -7 -6
-18 -12 -24 -10 -8 -13 2 -15 46 -1 30 -6 59 -10 63 -5 5 -26 -6 -47 -24z"/>
</g>
</svg>
